<svg fill="#000000" xmlns="http://www.w3.org/2000/svg"  viewBox="0 0 50 50" width="100px" height="100px"><path fill="none" stroke="#000000" stroke-linejoin="round" stroke-miterlimit="10" stroke-width="2" d="M25 21A4 4 0 1 0 25 29A4 4 0 1 0 25 21Z"/><path fill="none" stroke="#000000" stroke-width="2.043" d="M24.97 16.393A22.534 8.593 0 1 0 24.97 33.579A22.534 8.593 0 1 0 24.97 16.393Z" transform="rotate(-60 24.97 24.986)"/><path fill="none" stroke="#000000" stroke-width="2.019" d="M47,24.593c0,4.743-9.858,8.593-22,8.593s-22-3.85-22-8.593C3,19.85,12.858,16,25,16S47,19.85,47,24.593z"/><path fill="none" stroke="#000000" stroke-width="2" d="M24.98 2.4800000000000004A8.593 22.534 0 1 0 24.98 47.548A8.593 22.534 0 1 0 24.98 2.4800000000000004Z" transform="rotate(-30 24.978 25.015)"/></svg>